<svg xmlns="http://www.w3.org/2000/svg" viewBox="0 0 512 512">
  <defs>
    <linearGradient id="bg" x1="0" y1="0" x2="0" y2="512" gradientUnits="userSpaceOnUse">
      <stop offset="0%" stop-color="#1c1917"/>
      <stop offset="100%" stop-color="#0c0a09"/>
    </linearGradient>
    <linearGradient id="gold" x1="140" y1="60" x2="380" y2="460" gradientUnits="userSpaceOnUse">
      <stop offset="0%" stop-color="#f5f0e0"/>
      <stop offset="30%" stop-color="#e0d8be"/>
      <stop offset="60%" stop-color="#d0c4a0"/>
      <stop offset="100%" stop-color="#b8a878"/>
    </linearGradient>
    <linearGradient id="highlight" x1="140" y1="60" x2="380" y2="460" gradientUnits="userSpaceOnUse">
      <stop offset="0%" stop-color="#fffef5"/>
      <stop offset="100%" stop-color="#e8dfc8"/>
    </linearGradient>
  </defs>
  <rect width="512" height="512" rx="96" fill="url(#bg)"/>
  <!-- Shadow layer - offset slightly -->
  <path d="
    M 116 84 L 398 84 L 398 140 L 354 140 L 354 126 L 302 126 L 302 312
    C 302 358 292 394 272 420
    C 252 446 222 459 182 459
    C 154 459 128 450 104 432
    L 104 368
    C 128 390 156 401 186 401
    C 206 401 222 393 234 377
    C 246 361 252 337 252 305
    L 252 126 L 162 126 L 162 140 L 116 140 Z
  " fill="#0c0a09" opacity="0.5" transform="translate(4,4)"/>
  <!-- Main J -->
  <path d="
    M 116 80 L 398 80 L 398 136 L 354 136 L 354 122 L 302 122 L 302 308
    C 302 354 292 390 272 416
    C 252 442 222 455 182 455
    C 154 455 128 446 104 428
    L 104 364
    C 128 386 156 397 186 397
    C 206 397 222 389 234 373
    C 246 357 252 333 252 301
    L 252 122 L 162 122 L 162 136 L 116 136 Z
  " fill="url(#gold)"/>
  <!-- Top edge highlight -->
  <path d="
    M 116 80 L 398 80 L 398 86 L 116 86 Z
  " fill="url(#highlight)" opacity="0.6"/>
</svg>
